<svg width="29" height="29" viewBox="0 0 29 29" fill="none" xmlns="http://www.w3.org/2000/svg">
<path d="M0 3.48C0 1.55805 1.55805 0 3.48 0H25.52C27.4419 0 29 1.55805 29 3.48V25.52C29 27.4419 27.4419 29 25.52 29H3.48C1.55805 29 0 27.4419 0 25.52V3.48Z" fill="#293037"/>
<path d="M7.72638 22V5.76H14.756C16.2098 5.76 17.4626 5.99973 18.5144 6.4792C19.5661 6.9432 20.3781 7.616 20.9504 8.4976C21.5226 9.3792 21.8088 10.4309 21.8088 11.6528C21.8088 12.8592 21.5226 13.9032 20.9504 14.7848C20.3781 15.6664 19.5661 16.3469 18.5144 16.8264C17.4626 17.2904 16.2098 17.5224 14.756 17.5224H9.81438L11.4848 15.8288V22H7.72638ZM11.4848 16.2464L9.81438 14.46H14.5472C15.7072 14.46 16.5733 14.2125 17.1456 13.7176C17.7178 13.2227 18.004 12.5344 18.004 11.6528C18.004 10.7557 17.7178 10.0597 17.1456 9.5648C16.5733 9.06987 15.7072 8.8224 14.5472 8.8224H9.81438L11.4848 7.036V16.2464Z" fill="#D4F307"/>
</svg>
