<svg width="457" height="95" viewBox="0 0 457 95" fill="none" xmlns="http://www.w3.org/2000/svg">
<g clip-path="url(#clip0_4095_86142)">
<path d="M0 20C0 8.9543 8.9543 0 20 0H457V95H20C8.95432 95 0 86.0457 0 75V20Z" fill="#FBFEE6" fill-opacity="0.5"/>
<path d="M-310.367 -153.341C-163.535 -94.1124 -84.3875 -15.9972 -38.7405 47.9066C-0.688906 101.184 -1.36399 122.977 39.0411 162.726C126.724 248.979 294.691 308.459 376.097 234.336C416.197 197.823 401.364 151.551 420.544 63.9553C437.8 -14.8429 482.415 -123.218 606.974 -241" stroke="#C1DD06" stroke-width="0.772559" stroke-miterlimit="10"/>
<path d="M-310.078 -134.232C-167.26 -83.3295 -88.9035 -9.84201 -43.2803 49.9635C-4.8925 100.299 -1.7712 120.428 41.1464 159.493C131.178 241.444 288.92 298.499 370.44 229.338C412.43 193.717 402.879 148.236 425.353 60.8974C445.14 -15.9947 490.665 -122.517 613.077 -239.242" stroke="#C1DD06" stroke-width="0.772559" stroke-miterlimit="10"/>
<path d="M-309.781 -115.127C-170.979 -72.5481 -93.3535 -3.66978 -47.8044 52.019C-9.00098 99.461 -2.23947 117.879 43.2673 156.259C135.448 234.004 283.408 288.67 364.803 224.34C408.775 189.585 404.34 144.965 430.179 57.8407C452.418 -17.1267 498.933 -121.809 619.206 -237.473" stroke="#C1DD06" stroke-width="0.772559" stroke-miterlimit="10"/>
<path d="M-309.484 -96.0152C-174.698 -61.76 -97.7267 2.52499 -52.3285 54.0944C-13.0591 98.6771 -2.78443 115.353 45.3989 153.026C139.547 226.673 278.135 278.994 359.173 219.345C405.217 185.457 405.736 141.735 435.014 54.7853C459.601 -18.2388 507.209 -121.097 625.325 -235.707" stroke="#C1DD06" stroke-width="0.772559" stroke-miterlimit="10"/>
<path d="M-309.188 -76.9077C-178.404 -50.9814 -102.01 8.71822 -56.8526 56.1391C-17.0484 97.9341 -3.37445 112.85 47.5039 149.795C143.455 219.449 273.052 269.475 353.518 214.347C401.728 181.32 407.031 138.525 439.825 51.7285C466.68 -19.3472 515.464 -120.389 631.427 -233.93" stroke="#C1DD06" stroke-width="0.772559" stroke-miterlimit="10"/>
<path d="M-308.898 -57.8011C-182.142 -40.1983 -106.203 14.9133 -61.3845 58.1962C-20.9609 97.2352 -4.06758 110.382 49.6171 146.56C147.225 212.343 268.171 260.116 347.869 209.351C398.332 177.206 408.231 135.329 444.641 48.6707C473.675 -20.4591 523.722 -119.68 637.538 -232.18" stroke="#C1DD06" stroke-width="0.772559" stroke-miterlimit="10"/>
<path d="M-308.609 -38.6948C-185.869 -29.4288 -110.279 21.0816 -65.9164 60.253C-24.7832 96.5732 -4.80569 107.957 51.7276 143.327C150.874 205.354 263.464 250.927 342.22 204.353C395.018 173.129 409.375 132.133 449.457 45.6153C480.588 -21.5818 531.991 -118.97 643.646 -230.414" stroke="#C1DD06" stroke-width="0.772559" stroke-miterlimit="10"/>
<path d="M-308.297 -19.5871C-189.573 -18.6367 -114.206 27.2195 -70.4249 62.3086C-28.4763 95.931 -5.56279 105.584 53.8615 140.093C154.438 198.482 258.94 241.903 336.594 199.353C391.809 169.101 410.439 128.931 454.297 42.5561C487.429 -22.719 540.251 -118.254 649.77 -228.652" stroke="#C1DD06" stroke-width="0.772559" stroke-miterlimit="10"/>
<path d="M-308.016 -0.482051C-193.308 -7.85516 -118.025 33.2992 -74.9646 64.3669C-32.0762 95.2995 -6.41722 103.284 55.9669 136.856C157.893 191.727 254.524 233.048 330.937 194.356C388.651 165.139 411.385 125.703 459.105 39.4969C494.189 -23.8801 548.511 -117.557 655.897 -226.891" stroke="#C1DD06" stroke-width="0.772559" stroke-miterlimit="10"/>
<path d="M-307.719 18.6191C-197.024 2.92247 -121.689 39.2956 -79.4888 66.4185C-35.5599 94.6508 -7.28796 101.015 58.0851 133.618C161.277 185.079 250.225 224.351 325.296 189.352C385.565 161.255 412.261 122.438 463.929 36.4337C500.882 -25.0741 556.78 -116.853 661.999 -225.133" stroke="#C1DD06" stroke-width="0.772559" stroke-miterlimit="10"/>
<path d="M-307.43 37.7332C-200.738 13.7104 -125.217 45.2016 -84.018 68.4805C-38.9111 93.97 -8.19818 98.8386 60.1983 130.388C164.608 178.55 246.019 215.826 319.647 184.361C382.542 157.482 413.043 119.139 468.745 33.3809C507.501 -26.2897 565.037 -116.138 668.11 -223.359" stroke="#C1DD06" stroke-width="0.772559" stroke-miterlimit="10"/>
<path d="M-307.141 56.8409C-204.478 24.4919 -128.611 50.9769 -88.5499 70.5388C-42.1351 93.2061 -9.1269 96.7325 62.3088 127.157C167.899 172.121 241.89 207.448 313.998 179.364C379.577 153.824 413.745 115.783 473.561 30.3269C514.067 -27.546 573.295 -115.43 674.218 -221.598" stroke="#C1DD06" stroke-width="0.772559" stroke-miterlimit="10"/>
<path d="M-306.844 75.9526C-208.198 35.2774 -131.88 56.6051 -93.0741 72.6009C-45.2296 92.3217 -10.0929 94.699 64.4297 123.927C171.172 165.791 237.821 199.22 308.359 174.368C376.663 150.303 414.378 112.368 478.385 27.2715C520.591 -28.8408 581.561 -114.718 680.337 -219.832" stroke="#C1DD06" stroke-width="0.772559" stroke-miterlimit="10"/>
<path d="M-306.547 95.0575C-211.914 46.0588 -135.051 62.0652 -97.5981 74.6564C-48.2155 91.2584 -11.0641 92.7383 66.5428 120.69C174.42 159.544 233.784 191.112 302.712 169.371C373.804 146.934 414.932 108.874 483.204 24.2121C527.075 -30.1847 589.827 -114.018 686.453 -218.062" stroke="#C1DD06" stroke-width="0.772559" stroke-miterlimit="10"/>
<path d="M-306.25 114.163C-215.634 56.8379 -138.159 67.3482 -102.133 76.7122C-51.1327 89.9652 -12.0565 90.8521 68.6584 117.456C177.667 153.385 229.763 183.16 297.066 164.371C370.969 143.74 415.422 105.304 488.023 21.1452C533.511 -31.5811 598.084 -113.313 692.561 -216.316" stroke="#C1DD06" stroke-width="0.772559" stroke-miterlimit="10"/>
<path d="M-305.961 133.272C-219.347 67.6205 -141.248 72.4521 -106.654 78.7689C-53.9967 88.3844 -13.0435 89.0436 70.7795 114.221C180.913 147.314 225.75 175.321 291.427 159.375C368.163 140.74 415.857 101.661 492.849 18.0977C539.937 -33.0084 606.353 -112.596 698.679 -214.543" stroke="#C1DD06" stroke-width="0.772559" stroke-miterlimit="10"/>
<path d="M-305.656 152.378C-223.072 78.4032 -143.977 86.9544 -111.17 80.8283C-57.5096 70.8051 -14.0255 87.3118 72.9083 110.988C184.18 141.298 221.713 167.598 285.781 154.377C365.36 137.963 416.233 97.9095 497.668 15.0395C546.33 -34.4834 614.613 -111.886 704.793 -212.77" stroke="#C1DD06" stroke-width="0.772559" stroke-miterlimit="10"/>
<path d="M-305.375 171.487C-226.804 89.1889 -146.767 90.0546 -115.71 82.888C-61.2763 70.3286 -15.0309 85.6546 75.011 107.758C187.461 135.371 217.631 159.992 280.137 149.381C362.551 135.408 416.567 94.0814 502.49 11.9791C552.717 -36.0109 622.876 -111.182 710.906 -211.02" stroke="#C1DD06" stroke-width="0.772559" stroke-miterlimit="10"/>
<path d="M-305.078 190.596C-230.524 99.9688 -149.92 92.8472 -120.234 84.9446C-64.8209 70.1958 -16.0154 84.0683 77.1319 104.536C190.762 129.49 213.501 152.47 274.496 144.398C359.724 133.117 416.867 90.168 507.313 8.93941C559.095 -37.5628 631.144 -110.46 717.025 -209.238" stroke="#C1DD06" stroke-width="0.772559" stroke-miterlimit="10"/>
<path d="M-304.781 209.702C-234.243 110.752 -154.394 91.362 -124.756 87.0017C-66.3772 78.432 -16.984 82.5487 79.2529 101.298C194.099 123.661 209.3 145.025 268.857 139.394C356.852 131.066 417.134 86.128 512.143 5.86842C565.478 -39.1909 639.416 -109.758 723.143 -207.488" stroke="#C1DD06" stroke-width="0.772559" stroke-miterlimit="10"/>
<path d="M-304.484 228.807C-237.962 121.533 -158.081 95.8558 -129.283 89.0598C-70.0726 75.0893 -17.9473 81.0963 81.3685 98.0611C197.456 117.882 205.004 137.661 263.213 134.394C353.917 129.306 417.381 82.0282 516.961 2.81699C571.853 -40.8471 647.676 -109.045 729.259 -205.719" stroke="#C1DD06" stroke-width="0.772559" stroke-miterlimit="10"/>
<path d="M-304.195 247.916C-241.687 132.316 -162.028 100.356 -133.814 91.1167C-74.1147 71.5575 -18.8999 79.7089 83.4817 94.8231C200.845 112.148 200.599 130.357 257.566 129.393C350.888 127.805 417.601 77.8187 521.78 -0.243551C578.232 -42.539 655.934 -108.344 735.37 -203.961" stroke="#C1DD06" stroke-width="0.772559" stroke-miterlimit="10"/>
</g>
<defs>
<clipPath id="clip0_4095_86142">
<path d="M0 20C0 8.9543 8.9543 0 20 0H457V95H20C8.95432 95 0 86.0457 0 75V20Z" fill="white"/>
</clipPath>
</defs>
</svg>
